<?xml version="1.0" encoding="iso-8859-1"?>
<!DOCTYPE svg PUBLIC "-//W3C//DTD SVG 1.1//EN" "http://www.w3.org/Graphics/SVG/1.1/DTD/svg11.dtd">
<svg version="1.1" id="timebomb" xmlns="http://www.w3.org/2000/svg" xmlns:xlink="http://www.w3.org/1999/xlink" x="0px" y="0px"
	 viewBox="-49 141 512 512" style="enable-background:new -49 141 512 512;" xml:space="preserve">
<g>
	<g transform="translate(1 1)" style="display:none;">
		<g style="display:inline;">
			<path style="fill:#A4C2F7;" d="M86.533,216.8v358.4H1.2c-23.561-0.009-42.658-19.106-42.667-42.667V498.4
				c0.009-23.561,19.106-42.658,42.667-42.667c-23.561-0.009-42.658-19.106-42.667-42.667v-34.133
				c0.009-23.561,19.106-42.658,42.667-42.667c-23.561-0.009-42.658-19.106-42.667-42.667v-34.133
				c0.009-23.561,19.106-42.658,42.667-42.667H86.533z"/>
			<path style="fill:#A4C2F7;" d="M410.8,336.267c23.561,0.009,42.658,19.106,42.667,42.667v34.133
				c-0.009,23.561-19.106,42.658-42.667,42.667c23.561,0.009,42.658,19.106,42.667,42.667v34.133
				c-0.009,23.561-19.106,42.658-42.667,42.667h-68.267V455.733h-42.667v59.733c-0.028,9.414-7.653,17.039-17.067,17.067H146.267
				c-9.414-0.028-17.039-7.653-17.067-17.067V276.533c0.027-9.414,7.652-17.039,17.067-17.067H282.8
				c9.414,0.028,17.039,7.652,17.067,17.067v59.733h42.667V216.8H410.8c23.561,0.009,42.658,19.106,42.667,42.667V293.6
				C453.458,317.161,434.361,336.258,410.8,336.267z"/>
		</g>
		<g style="display:inline;">
			<path style="fill:#E3E7F2;" d="M342.533,455.733V575.2h-256V455.733H129.2v59.733c0.028,9.414,7.653,17.039,17.067,17.067H282.8
				c9.414-0.028,17.039-7.653,17.067-17.067v-59.733H342.533z"/>
			<path style="fill:#E3E7F2;" d="M86.533,216.8v119.467H113c0-1.149,0-2.266,0-3.267c0,1.001,0,2.117,0,3.267h6.759
				c-0.051-2.756,0.139-5.511,1.241-8.267c-1.102,2.756-1.292,5.511-1.241,8.267h1.333c-0.355-2.422-0.576-4.844-0.092-7.267
				c-0.484,2.422-0.263,4.844,0.092,7.267h8.108v-59.733c0.028-9.414,7.652-17.039,17.067-17.067H282.8
				c9.414,0.027,17.039,7.652,17.067,17.067v59.733h42.667V216.8H86.533z"/>
			<path style="fill:#E3E7F2;" d="M86.533,216.8v358.4H1.2c-23.561-0.009-42.658-19.106-42.667-42.667V498.4
				c0.009-23.561,19.106-42.658,42.667-42.667c-23.561-0.009-42.658-19.106-42.667-42.667v-34.133
				c0.009-23.561,19.106-42.658,42.667-42.667c-23.561-0.009-42.658-19.106-42.667-42.667v-34.133
				c0.009-23.561,19.106-42.658,42.667-42.667H86.533z"/>
			<path style="fill:#E3E7F2;" d="M393.733,335.413c-2.806,0.588-5.667,0.874-8.533,0.853c2.867-0.021,5.727,0.265,8.533,0.853
				c19.868,4.057,34.136,21.536,34.133,41.813v34.133c0.003,20.278-14.266,37.757-34.133,41.813
				c-2.806,0.588-5.667,0.874-8.533,0.853c2.867-0.021,5.727,0.265,8.533,0.853c19.868,4.057,34.136,21.536,34.133,41.813v34.133
				c0.003,20.278-14.266,37.757-34.133,41.813c-2.806,0.588-5.667,0.874-8.533,0.853h-42.667V455.733h-42.667v59.733
				c-0.028,9.414-7.653,17.039-17.067,17.067H146.267c-9.414-0.028-17.039-7.653-17.067-17.067V276.533
				c0.027-9.414,7.652-17.039,17.067-17.067H282.8c9.414,0.028,17.039,7.652,17.067,17.067v59.733h42.667V216.8H385.2
				c2.867-0.021,5.727,0.265,8.533,0.853c19.868,4.057,34.136,21.536,34.133,41.813V293.6
				C427.87,313.878,413.601,331.357,393.733,335.413z"/>
		</g>
		<g style="display:inline;">
			<path style="fill:#A4C2F7;" d="M86.533,336.267v119.467H1.2c-23.561-0.009-42.658-19.106-42.667-42.667v-34.133
				c0.009-23.561,19.106-42.658,42.667-42.667H86.533z"/>
			<path style="fill:#A4C2F7;" d="M453.467,378.933v34.133c-0.009,23.561-19.106,42.658-42.667,42.667H129.2V336.267h281.6
				C434.361,336.275,453.458,355.373,453.467,378.933z"/>
		</g>
		<g style="display:inline;">
			<path style="fill:#E3E7F2;" d="M122,344c0-2.578-0.53-5.156-0.908-7.733h-1.333C119.8,338.511,120,340.756,120,343
				C120,345,121,343,122,344z"/>
			<path style="fill:#E3E7F2;" d="M121.092,336.267C121.47,338.844,122,341.422,122,344c-1-1-2,1-2-1c0-2.244-0.2-4.489-0.241-6.733
				H113c0,2.295,0,4.734,0,6.733c0-1.999,0-4.438,0-6.733H86.533v119.467H129.2V336.267H121.092z"/>
			<path style="fill:#E3E7F2;" d="M86.533,336.267v119.467H1.2c-23.561-0.009-42.658-19.106-42.667-42.667v-34.133
				c0.009-23.561,19.106-42.658,42.667-42.667H86.533z"/>
			<path style="fill:#E3E7F2;" d="M427.867,378.933v34.133c0.003,20.278-14.266,37.757-34.133,41.813
				c-2.806,0.588-5.667,0.874-8.533,0.853l-256,0.001V336.266l256,0.001c2.867-0.021,5.727,0.265,8.533,0.853
				C413.601,341.177,427.869,358.656,427.867,378.933z"/>
		</g>
		<path style="display:inline;fill:#7FABFA;" d="M146.267,259.467H282.8c9.426,0,17.067,7.641,17.067,17.067v238.933
			c0,9.426-7.641,17.067-17.067,17.067H146.267c-9.426,0-17.067-7.641-17.067-17.067V276.533
			C129.2,267.108,136.841,259.467,146.267,259.467z"/>
		<path style="display:inline;fill:#A4C2F7;" d="M146.267,259.467H257.2c9.426,0,17.067,7.641,17.067,17.067v238.933
			c0,9.426-7.641,17.067-17.067,17.067H146.267c-9.426,0-17.067-7.641-17.067-17.067V276.533
			C129.2,267.108,136.841,259.467,146.267,259.467z"/>
		<path style="display:inline;fill:#E3E7F2;" d="M171.867,293.6H257.2c4.713,0,8.533,3.821,8.533,8.533v51.2
			c0,4.713-3.82,8.533-8.533,8.533h-85.333c-4.713,0-8.533-3.821-8.533-8.533v-51.2C163.333,297.421,167.154,293.6,171.867,293.6z"
			/>
		<g style="display:inline;">
			<circle style="fill:#D4E1F4;" cx="180.4" cy="489.867" r="17.067"/>
			<circle style="fill:#D4E1F4;" cx="248.667" cy="489.867" r="17.067"/>
		</g>
		<g style="display:inline;">
			<path style="fill:#E3E7F2;" d="M43.867,199.733H78c4.713,0,8.533,3.82,8.533,8.533v375.467c0,4.713-3.821,8.533-8.533,8.533
				H43.867c-4.713,0-8.533-3.82-8.533-8.533V208.267C35.333,203.554,39.154,199.733,43.867,199.733z"/>
			<path style="fill:#E3E7F2;" d="M351.067,199.733H385.2c4.713,0,8.533,3.82,8.533,8.533v375.467c0,4.713-3.821,8.533-8.533,8.533
				h-34.133c-4.713,0-8.533-3.82-8.533-8.533V208.267C342.533,203.554,346.354,199.733,351.067,199.733z"/>
		</g>
	</g>
	<g>
		<polygon style="fill:#CEEADA;" points="442.667,586.667 -29.333,586.667 -29.333,320.799 82.112,201.333 442.667,201.333 		"/>
		<path style="fill:#6CC191;" d="M157.03,551.5h136.533c14.132-0.015,25.585-11.468,25.6-25.6V286.967
			c-0.015-14.132-11.468-25.585-25.6-25.6H157.03c-14.132,0.015-25.585,11.468-25.6,25.6V525.9
			C131.445,540.032,142.898,551.485,157.03,551.5z M148.497,286.967c0.003-4.712,3.822-8.53,8.533-8.533h136.533
			c4.712,0.003,8.53,3.822,8.533,8.533V525.9c-0.003,4.711-3.822,8.53-8.533,8.533H157.03c-4.711-0.003-8.53-3.822-8.533-8.533
			V286.967z"/>
		<g>
			<g>
				<path style="fill:#6CC191;" d="M285.03,253.25c0,5.5-3.84,10-8.533,10s-8.533-4.5-8.533-10v-43.923c0-5.5,3.84-10,8.533-10
					s8.533,4.5,8.533,10V253.25z"/>
			</g>
			<g>
				<path style="fill:#6CC191;" d="M182.63,252.67c0,5.5-3.84,10-8.533,10c-4.693,0-8.533-4.5-8.533-10v-43.343
					c0-5.5,3.84-10,8.533-10c4.693,0,8.533,4.5,8.533,10V252.67z"/>
			</g>
			<g>
				<path style="fill:#6CC191;" d="M182.63,584.25c0,5.5-3.84,10-8.533,10c-4.693,0-8.533-4.5-8.533-10v-44.056
					c0-5.5,3.84-10,8.533-10c4.693,0,8.533,4.5,8.533,10V584.25z"/>
			</g>
			<g>
				<path style="fill:#6CC191;" d="M285.03,589c0,5.5-3.84,10-8.533,10s-8.533-4.5-8.533-10v-47.25c0-5.5,3.84-10,8.533-10
					s8.533,4.5,8.533,10V589z"/>
			</g>
		</g>
		<path style="fill:#C12826;" d="M134.43,262.67v266.66h161.62V262.67H134.43z M262,360.67h-96v-64h96V360.67z"/>
		<rect x="166" y="296.67" style="fill:#F6F8D4;" width="96" height="64"/>
		<polygon style="fill:#FFFFFF;" points="76.667,316.66 -29.333,316.66 76.667,199.327 		"/>
	</g>
	<g>
		<path style="fill:#0A9848;" d="M426.612,191.431H80.876c-6.329,0.001-11.318,2.663-14.161,7.134
			c-0.321,0.505-0.674,0.988-1.097,1.41L-39.965,305.558c-3.358,3.358-5.035,6.714-5.035,11.749v246.916
			c0,20.198,16.526,36.724,36.724,36.724h430.053c20.198,0,36.724-16.526,36.724-36.724V223.32
			C458.501,204.858,443.396,191.431,426.612,191.431z M62.562,233.025c3.701-3.701,10.029-1.08,10.029,4.154v58.261
			c0,7.503-6.082,13.584-13.585,13.584l-58.26-0.001c-5.234,0-7.855-6.328-4.154-10.029L62.562,233.025z M425.5,580.106
			c-16.625,0-426.89,0-426.89,0c-13.623,0-24.666-11.043-24.666-24.666V333.888c0-3.245,2.63-5.875,5.875-5.875h65.98
			c34.202,0,44.91-15.18,44.91-45.341v-66.669c0-3.245,2.63-5.875,5.875-5.875h329.271c8.365,0,15.146,6.781,15.146,15.146
			l0.167,335.809C441.167,561.083,442.125,580.106,425.5,580.106z"/>
		<path style="fill:#0A9848;" d="M122.063,478.503H7.081c-7.418,0-12.364,4.945-12.364,12.364s4.945,12.364,12.364,12.364h114.981
			c6.182,0,12.364-4.945,12.364-12.364S129.481,478.503,122.063,478.503z"/>
		<path style="fill:#0A9848;" d="M122.063,414.6H7.081c-7.418,0-12.364,4.945-12.364,12.364s4.945,12.364,12.364,12.364h114.981
			c6.182,0,12.364-4.945,12.364-12.364C134.426,419.545,129.481,414.6,122.063,414.6z"/>
		<path style="fill:#0A9848;" d="M407.766,414.6H295.984v24.727h111.782c6.182,0,12.364-4.945,12.364-12.364
			C420.129,419.545,415.184,414.6,407.766,414.6z"/>
		<path style="fill:#0A9848;" d="M407.766,354.6H295.984v24.727h111.782c6.182,0,12.364-4.945,12.364-12.364
			C420.129,359.545,415.184,354.6,407.766,354.6z"/>
		<path style="fill:#0A9848;" d="M407.704,478.503H296.047v24.727h111.657c6.182,0,12.364-4.945,12.364-12.364
			C420.067,483.448,415.122,478.503,407.704,478.503z"/>
		<path style="fill:#0A9848;" d="M407.766,291.933H295.984v24.727h111.782c6.182,0,12.364-4.945,12.364-12.364
			C420.129,296.878,415.184,291.933,407.766,291.933z"/>
		<path style="fill:#0A9848;" d="M122.063,354.6H7.081c-7.418,0-12.364,4.945-12.364,12.364s4.945,12.364,12.364,12.364h114.981
			c6.182,0,12.364-4.945,12.364-12.364C134.426,359.545,129.481,354.6,122.063,354.6z"/>
	</g>
	<g>
		<g>
			<g>
				<rect x="170.667" y="191.431" style="fill:#C12826;" width="91.333" height="60.502"/>
				<rect x="170.333" y="541.067" style="fill:#C12826;" width="91.333" height="60.502"/>
				<g>
					<path style="fill:#611413;" d="M275.267,263c0,5.5-3.84,10-8.533,10s-8.533-4.5-8.533-10v-69.875c0-5.5,3.84-10,8.533-10
						s8.533,4.5,8.533,10V263z"/>
				</g>
				<g>
					<path style="fill:#611413;" d="M172.867,263c0,5.5-3.84,10-8.533,10s-8.533-4.5-8.533-10v-69.875c0-5.5,3.84-10,8.533-10
						s8.533,4.5,8.533,10V263z"/>
				</g>
				<g>
					<path style="fill:#611413;" d="M172.867,599.475c0,5.5-3.84,10-8.533,10s-8.533-4.5-8.533-10V529.6c0-5.5,3.84-10,8.533-10
						s8.533,4.5,8.533,10V599.475z"/>
				</g>
				<g>
					<path style="fill:#611413;" d="M275.267,599.475c0,5.5-3.84,10-8.533,10s-8.533-4.5-8.533-10V529.6c0-5.5,3.84-10,8.533-10
						s8.533,4.5,8.533,10V599.475z"/>
				</g>
			</g>
			<path style="fill:#611413;" d="M172.867,371.4H258.2c9.421-0.012,17.054-7.646,17.067-17.067v-51.2
				c-0.012-9.421-7.646-17.054-17.067-17.067h-85.333c-9.421,0.012-17.054,7.646-17.067,17.067v51.2
				C155.812,363.754,163.446,371.388,172.867,371.4z M172.867,303.133H258.2l0.017,51.2h-85.35V303.133z"/>
			<path style="fill:#611413;" d="M164.333,426.5H181.4c4.713,0,8.533-3.821,8.533-8.533c0-4.713-3.821-8.533-8.533-8.533h-17.067
				c-4.713,0-8.533,3.821-8.533,8.533C155.8,422.679,159.621,426.5,164.333,426.5z"/>
			<path style="fill:#611413;" d="M207,426.5h17.067c4.713,0,8.533-3.821,8.533-8.533c0-4.713-3.821-8.533-8.533-8.533H207
				c-4.713,0-8.533,3.821-8.533,8.533C198.467,422.679,202.287,426.5,207,426.5z"/>
			<path style="fill:#611413;" d="M266.733,409.433h-17.067c-4.713,0-8.533,3.821-8.533,8.533c0,4.713,3.821,8.533,8.533,8.533
				h17.067c4.713,0,8.533-3.821,8.533-8.533C275.267,413.254,271.446,409.433,266.733,409.433z"/>
			<path style="fill:#611413;" d="M164.333,452.1H181.4c4.713,0,8.533-3.821,8.533-8.533s-3.821-8.533-8.533-8.533h-17.067
				c-4.713,0-8.533,3.82-8.533,8.533S159.621,452.1,164.333,452.1z"/>
			<path style="fill:#611413;" d="M207,452.1h17.067c4.713,0,8.533-3.821,8.533-8.533s-3.821-8.533-8.533-8.533H207
				c-4.713,0-8.533,3.82-8.533,8.533S202.287,452.1,207,452.1z"/>
			<path style="fill:#611413;" d="M266.733,435.033h-17.067c-4.713,0-8.533,3.82-8.533,8.533s3.821,8.533,8.533,8.533h17.067
				c4.713,0,8.533-3.821,8.533-8.533S271.446,435.033,266.733,435.033z"/>
			<path style="fill:#611413;" d="M164.333,477.7H181.4c4.713,0,8.533-3.82,8.533-8.533s-3.821-8.533-8.533-8.533h-17.067
				c-4.713,0-8.533,3.82-8.533,8.533S159.621,477.7,164.333,477.7z"/>
			<path style="fill:#611413;" d="M207,477.7h17.067c4.713,0,8.533-3.82,8.533-8.533s-3.821-8.533-8.533-8.533H207
				c-4.713,0-8.533,3.82-8.533,8.533S202.287,477.7,207,477.7z"/>
			<path style="fill:#611413;" d="M266.733,460.633h-17.067c-4.713,0-8.533,3.82-8.533,8.533s3.821,8.533,8.533,8.533h17.067
				c4.713,0,8.533-3.82,8.533-8.533S271.446,460.633,266.733,460.633z"/>
			<path style="fill:#611413;" d="M164.333,504.033H181.4c4.713,0,8.533-3.82,8.533-8.533s-3.821-8.533-8.533-8.533h-17.067
				c-4.713,0-8.533,3.82-8.533,8.533S159.621,504.033,164.333,504.033z"/>
			<path style="fill:#611413;" d="M207,504.033h17.067c4.713,0,8.533-3.82,8.533-8.533s-3.821-8.533-8.533-8.533H207
				c-4.713,0-8.533,3.82-8.533,8.533S202.287,504.033,207,504.033z"/>
			<path style="fill:#611413;" d="M266.733,486.967h-17.067c-4.713,0-8.533,3.82-8.533,8.533s3.821,8.533,8.533,8.533h17.067
				c4.713,0,8.533-3.82,8.533-8.533S271.446,486.967,266.733,486.967z"/>
			<circle style="fill:#D2DE26;" cx="258.2" cy="389.978" r="10.167"/>
			<path style="fill:#611413;" d="M147.267,542.067H283.8c14.132-0.015,25.585-11.468,25.6-25.6V277.533
				c-0.015-14.132-11.468-25.585-25.6-25.6H147.267c-14.132,0.015-25.585,11.468-25.6,25.6v238.933
				C121.682,530.599,133.135,542.051,147.267,542.067z M138.733,277.533c0.003-4.712,3.822-8.53,8.533-8.533H283.8
				c4.712,0.003,8.53,3.822,8.533,8.533v238.933c-0.003,4.711-3.822,8.53-8.533,8.533H147.267c-4.711-0.003-8.53-3.822-8.533-8.533
				V277.533z"/>
		</g>
	</g>
</g>
</svg>
